<svg width="1381" height="892" xmlns="http://www.w3.org/2000/svg" xmlns:xlink="http://www.w3.org/1999/xlink" xml:space="preserve" overflow="hidden"><defs><clipPath id="clip0"><rect x="7482" y="3861" width="1381" height="892"/></clipPath></defs><g clip-path="url(#clip0)" transform="translate(-7482 -3861)"><rect x="7483" y="3862" width="1378" height="889" fill="#FFFFFF"/><g><path d="M7645.5 4642.5 8809.5 4642.5M7645.5 4526.65 8809.5 4526.65M7645.5 4409.64 8809.5 4409.64M7645.5 4293.64 8809.5 4293.64M7645.5 4177.64 8809.5 4177.64M7645.5 4060.5 8809.5 4060.5" stroke="#D9D9D9" stroke-width="3.4375" stroke-linejoin="round" stroke-miterlimit="10" fill="none"/></g><g><path d="M7669.25 4352.14 7763.25 4352.14 7763.25 4643 7669.25 4643ZM8057.26 4526.15 8151.27 4526.15 8151.27 4643 8057.26 4643ZM8445.28 4468.15 8540.28 4468.15 8540.28 4643 8445.28 4643Z" fill="#5B9BD5"/></g><g><path d="M7792.26 4177.14 7886.26 4177.14 7886.26 4643 7792.26 4643ZM8568.28 4526.15 8663.28 4526.15 8663.28 4643 8568.28 4643Z" fill="#ED7D31"/></g><g><path d="M7915.26 4177.14 8009.26 4177.14 8009.26 4643 7915.26 4643ZM8691.29 4526.15 8786.29 4526.15 8786.29 4643 8691.29 4643Z" fill="#A5A5A5"/></g><g><text fill="#404040" font-family="Calibri,Calibri_MSFontService,sans-serif" font-weight="400" font-size="41" transform="matrix(1 0 0 1 7664.92 4320)">50.0%</text></g><g><text fill="#404040" font-family="Calibri,Calibri_MSFontService,sans-serif" font-weight="400" font-size="41" transform="matrix(1 0 0 1 8053.09 4495)">20.0%</text></g><g><text fill="#404040" font-family="Calibri,Calibri_MSFontService,sans-serif" font-weight="400" font-size="41" transform="matrix(1 0 0 1 8441.25 4436)">30.0%</text></g><g><text fill="#404040" font-family="Calibri,Calibri_MSFontService,sans-serif" font-weight="400" font-size="41" transform="matrix(1 0 0 1 7788 4145)">80.0%</text></g><g><text fill="#404040" font-family="Calibri,Calibri_MSFontService,sans-serif" font-weight="400" font-size="41" transform="matrix(1 0 0 1 8186.61 4611)">0.0%</text></g><g><text fill="#404040" font-family="Calibri,Calibri_MSFontService,sans-serif" font-weight="400" font-size="41" transform="matrix(1 0 0 1 8564.33 4495)">20.0%</text></g><g><text fill="#404040" font-family="Calibri,Calibri_MSFontService,sans-serif" font-weight="400" font-size="41" transform="matrix(1 0 0 1 7911.07 4145)">80.0%</text></g><g><text fill="#404040" font-family="Calibri,Calibri_MSFontService,sans-serif" font-weight="400" font-size="41" transform="matrix(1 0 0 1 8309.69 4611)">0.0%</text></g><g><text fill="#404040" font-family="Calibri,Calibri_MSFontService,sans-serif" font-weight="400" font-size="41" transform="matrix(1 0 0 1 8687.4 4495)">20.0%</text></g><g><text fill="#595959" font-family="Calibri,Calibri_MSFontService,sans-serif" font-weight="400" font-size="41" transform="matrix(1 0 0 1 7556.56 4654)">0%</text></g><g><text fill="#595959" font-family="Calibri,Calibri_MSFontService,sans-serif" font-weight="400" font-size="41" transform="matrix(1 0 0 1 7535.65 4538)">20%</text></g><g><text fill="#595959" font-family="Calibri,Calibri_MSFontService,sans-serif" font-weight="400" font-size="41" transform="matrix(1 0 0 1 7535.65 4422)">40%</text></g><g><text fill="#595959" font-family="Calibri,Calibri_MSFontService,sans-serif" font-weight="400" font-size="41" transform="matrix(1 0 0 1 7535.65 4305)">60%</text></g><g><text fill="#595959" font-family="Calibri,Calibri_MSFontService,sans-serif" font-weight="400" font-size="41" transform="matrix(1 0 0 1 7535.65 4189)">80%</text></g><g><text fill="#595959" font-family="Calibri,Calibri_MSFontService,sans-serif" font-weight="400" font-size="41" transform="matrix(1 0 0 1 7514.75 4072)">100%</text></g><g><text fill="#595959" font-family="Calibri,Calibri_MSFontService,sans-serif" font-weight="400" font-size="41" transform="matrix(1 0 0 1 7772.07 4708)">Optimal</text></g><g><text fill="#595959" font-family="Calibri,Calibri_MSFontService,sans-serif" font-weight="400" font-size="41" transform="matrix(1 0 0 1 8134.48 4708)">Alternative</text></g><g><text fill="#595959" font-family="Calibri,Calibri_MSFontService,sans-serif" font-weight="400" font-size="41" transform="matrix(1 0 0 1 8558.5 4708)">Failure</text></g><g><text fill="#595959" font-family="Calibri,Calibri_MSFontService,sans-serif" font-weight="400" font-size="64" transform="matrix(1 0 0 1 7630.87 3957)">Normal (no prompt eng.)</text></g><g><rect x="8356" y="3968" width="23" height="23" fill="#5B9BD5"/></g><g><text fill="#595959" font-family="Calibri,Calibri_MSFontService,sans-serif" font-weight="400" font-size="41" transform="matrix(1 0 0 1 8388.63 3991)">Easy</text></g><g><rect x="8498" y="3968" width="23" height="23" fill="#ED7D31"/></g><g><text fill="#595959" font-family="Calibri,Calibri_MSFontService,sans-serif" font-weight="400" font-size="41" transform="matrix(1 0 0 1 8530.33 3991)">Medium</text></g><g><rect x="8707" y="3968" width="22" height="23" fill="#A5A5A5"/></g><g><text fill="#595959" font-family="Calibri,Calibri_MSFontService,sans-serif" font-weight="400" font-size="41" transform="matrix(1 0 0 1 8738.92 3991)">Hard</text></g><rect x="7483.5" y="3862.5" width="1378" height="889" stroke="#5B9BD5" stroke-width="3.4375" stroke-linejoin="round" stroke-miterlimit="10" fill="none"/></g></svg>