<svg width="978" height="875" xmlns="http://www.w3.org/2000/svg" xmlns:xlink="http://www.w3.org/1999/xlink" xml:space="preserve" overflow="hidden"><defs><clipPath id="clip0"><rect x="4172" y="3859" width="978" height="875"/></clipPath><clipPath id="clip1"><rect x="4493" y="4441" width="512" height="51"/></clipPath><clipPath id="clip2"><rect x="4725" y="4373" width="512" height="51"/></clipPath></defs><g clip-path="url(#clip0)" transform="translate(-4172 -3859)"><rect x="4173" y="3860" width="975" height="872" fill="#FFFFFF"/><g><path d="M4401.5 4540.65 5097.5 4540.65M4401.5 4455.65 5097.5 4455.65M4401.5 4370.64 5097.5 4370.64M4401.5 4285.64 5097.5 4285.64M4401.5 4200.64 5097.5 4200.64M4401.5 4115.64 5097.5 4115.64M4401.5 4030.5 5097.5 4030.5" stroke="#D9D9D9" stroke-width="3.4375" stroke-linejoin="round" stroke-miterlimit="10" fill="none"/></g><g><path d="M4401.5 4030.5 4401.5 4625.5M4632.65 4030.5 4632.65 4625.5M4864.66 4030.5 4864.66 4625.5M5097.5 4030.5 5097.5 4625.5" stroke="#D9D9D9" stroke-width="3.4375" stroke-linejoin="round" stroke-miterlimit="10" fill="none"/></g><g><rect x="4706" y="4506" width="86" height="119" fill="#ED7D31"/></g><g><rect x="4938" y="4438" width="86" height="187" fill="#A5A5A5"/></g><g><path d="M4474.15 4513.15 4560.15 4513.15 4560.15 4625 4474.15 4625Z" fill="#5B9BD5"/></g><g><path d="M4401.5 4625.5 5097.5 4625.5" stroke="#D9D9D9" stroke-width="3.4375" stroke-linejoin="round" stroke-miterlimit="10" fill="none" fill-rule="evenodd"/></g><g><g><text fill="#404040" font-family="Calibri,Calibri_MSFontService,sans-serif" font-weight="400" font-size="41" transform="matrix(1 0 0 1 4480.53 4488)">26.4</text></g></g><g><g clip-path="url(#clip1)"><text fill="#404040" font-family="Calibri,Calibri_MSFontService,sans-serif" font-weight="400" font-size="41" transform="matrix(1 0 0 1 4712.54 4480)">28.2</text></g></g><g><g clip-path="url(#clip2)"><text fill="#404040" font-family="Calibri,Calibri_MSFontService,sans-serif" font-weight="400" font-size="41" transform="matrix(1 0 0 1 4944.56 4412)">44.1</text></g></g><g><text fill="#595959" font-family="Calibri,Calibri_MSFontService,sans-serif" font-weight="400" font-size="41" transform="matrix(1 0 0 1 4341.91 4637)">0</text></g><g><text fill="#595959" font-family="Calibri,Calibri_MSFontService,sans-serif" font-weight="400" font-size="41" transform="matrix(1 0 0 1 4321.01 4552)">20</text></g><g><text fill="#595959" font-family="Calibri,Calibri_MSFontService,sans-serif" font-weight="400" font-size="41" transform="matrix(1 0 0 1 4321.01 4467)">40</text></g><g><text fill="#595959" font-family="Calibri,Calibri_MSFontService,sans-serif" font-weight="400" font-size="41" transform="matrix(1 0 0 1 4321.01 4382)">60</text></g><g><text fill="#595959" font-family="Calibri,Calibri_MSFontService,sans-serif" font-weight="400" font-size="41" transform="matrix(1 0 0 1 4321.01 4297)">80</text></g><g><text fill="#595959" font-family="Calibri,Calibri_MSFontService,sans-serif" font-weight="400" font-size="41" transform="matrix(1 0 0 1 4300.11 4212)">100</text></g><g><text fill="#595959" font-family="Calibri,Calibri_MSFontService,sans-serif" font-weight="400" font-size="41" transform="matrix(1 0 0 1 4300.11 4127)">120</text></g><g><text fill="#595959" font-family="Calibri,Calibri_MSFontService,sans-serif" font-weight="400" font-size="41" transform="matrix(1 0 0 1 4300.11 4042)">140</text></g><g><text fill="#595959" font-family="Calibri,Calibri_MSFontService,sans-serif" font-weight="400" font-size="41" transform="matrix(1 0 0 1 4479.73 4691)">Easy</text></g><g><text fill="#595959" font-family="Calibri,Calibri_MSFontService,sans-serif" font-weight="400" font-size="41" transform="matrix(1 0 0 1 4678.31 4691)">Medium</text></g><g><text fill="#595959" font-family="Calibri,Calibri_MSFontService,sans-serif" font-weight="400" font-size="41" transform="matrix(1 0 0 1 4940.35 4691)">Hard</text></g><g><text fill="#595959" font-family="Calibri,Calibri_MSFontService,sans-serif" font-weight="400" font-size="46" transform="matrix(6.12323e-17 -1 1 6.12323e-17 4274.42 4428)">Latency (s)</text></g><g><text fill="#595959" font-family="Calibri,Calibri_MSFontService,sans-serif" font-weight="400" font-size="64" transform="matrix(1 0 0 1 4375.62 3956)">Normal (prompt eng.)</text></g><rect x="4173.5" y="3860.5" width="975" height="872" stroke="#5B9BD5" stroke-width="3.4375" stroke-linejoin="round" stroke-miterlimit="10" fill="none"/></g></svg>