<svg width="978" height="875" xmlns="http://www.w3.org/2000/svg" xmlns:xlink="http://www.w3.org/1999/xlink" xml:space="preserve" overflow="hidden"><defs><clipPath id="clip0"><rect x="3151" y="3859" width="978" height="875"/></clipPath></defs><g clip-path="url(#clip0)" transform="translate(-3151 -3859)"><rect x="3152" y="3860" width="975" height="872" fill="#FFFFFF"/><g><path d="M3380.5 4540.65 4076.5 4540.65M3380.5 4455.65 4076.5 4455.65M3380.5 4370.64 4076.5 4370.64M3380.5 4285.64 4076.5 4285.64M3380.5 4200.64 4076.5 4200.64M3380.5 4115.64 4076.5 4115.64M3380.5 4030.5 4076.5 4030.5" stroke="#D9D9D9" stroke-width="3.4375" stroke-linejoin="round" stroke-miterlimit="10" fill="none"/></g><g><path d="M3380.5 4030.5 3380.5 4625.5M3612.62 4030.5 3612.62 4625.5M3844.63 4030.5 3844.63 4625.5M4076.5 4030.5 4076.5 4625.5" stroke="#D9D9D9" stroke-width="3.4375" stroke-linejoin="round" stroke-miterlimit="10" fill="none"/></g><g><rect x="3685" y="4525" width="86" height="100" fill="#ED7D31"/></g><g><rect x="3917" y="4493" width="86" height="132" fill="#A5A5A5"/></g><g><path d="M3453.11 4498.15 3539.12 4498.15 3539.12 4625 3453.11 4625Z" fill="#5B9BD5"/></g><g><path d="M3380.5 4625.5 4076.5 4625.5" stroke="#D9D9D9" stroke-width="3.4375" stroke-linejoin="round" stroke-miterlimit="10" fill="none" fill-rule="evenodd"/></g><g><g><text fill="#404040" font-family="Calibri,Calibri_MSFontService,sans-serif" font-weight="400" font-size="41" transform="matrix(1 0 0 1 3459.59 4473)">29.8</text></g></g><g><g><text fill="#404040" font-family="Calibri,Calibri_MSFontService,sans-serif" font-weight="400" font-size="41" transform="matrix(1 0 0 1 3691.6 4500)">23.6</text></g></g><g><g><text fill="#404040" font-family="Calibri,Calibri_MSFontService,sans-serif" font-weight="400" font-size="41" transform="matrix(1 0 0 1 3923.62 4468)">31.1</text></g></g><g><text fill="#595959" font-family="Calibri,Calibri_MSFontService,sans-serif" font-weight="400" font-size="41" transform="matrix(1 0 0 1 3320.97 4637)">0</text></g><g><text fill="#595959" font-family="Calibri,Calibri_MSFontService,sans-serif" font-weight="400" font-size="41" transform="matrix(1 0 0 1 3300.07 4552)">20</text></g><g><text fill="#595959" font-family="Calibri,Calibri_MSFontService,sans-serif" font-weight="400" font-size="41" transform="matrix(1 0 0 1 3300.07 4467)">40</text></g><g><text fill="#595959" font-family="Calibri,Calibri_MSFontService,sans-serif" font-weight="400" font-size="41" transform="matrix(1 0 0 1 3300.07 4382)">60</text></g><g><text fill="#595959" font-family="Calibri,Calibri_MSFontService,sans-serif" font-weight="400" font-size="41" transform="matrix(1 0 0 1 3300.07 4297)">80</text></g><g><text fill="#595959" font-family="Calibri,Calibri_MSFontService,sans-serif" font-weight="400" font-size="41" transform="matrix(1 0 0 1 3279.17 4212)">100</text></g><g><text fill="#595959" font-family="Calibri,Calibri_MSFontService,sans-serif" font-weight="400" font-size="41" transform="matrix(1 0 0 1 3279.17 4127)">120</text></g><g><text fill="#595959" font-family="Calibri,Calibri_MSFontService,sans-serif" font-weight="400" font-size="41" transform="matrix(1 0 0 1 3279.17 4042)">140</text></g><g><text fill="#595959" font-family="Calibri,Calibri_MSFontService,sans-serif" font-weight="400" font-size="41" transform="matrix(1 0 0 1 3458.79 4691)">Easy</text></g><g><text fill="#595959" font-family="Calibri,Calibri_MSFontService,sans-serif" font-weight="400" font-size="41" transform="matrix(1 0 0 1 3657.37 4691)">Medium</text></g><g><text fill="#595959" font-family="Calibri,Calibri_MSFontService,sans-serif" font-weight="400" font-size="41" transform="matrix(1 0 0 1 3919.42 4691)">Hard</text></g><g><text fill="#595959" font-family="Calibri,Calibri_MSFontService,sans-serif" font-weight="400" font-size="46" transform="matrix(6.12323e-17 -1 1 6.12323e-17 3253.48 4428)">Latency (s)</text></g><g><text fill="#595959" font-family="Calibri,Calibri_MSFontService,sans-serif" font-weight="400" font-size="64" transform="matrix(1 0 0 1 3313.65 3956)">Normal (no prompt eng.)</text></g><rect x="3152.5" y="3860.5" width="975" height="872" stroke="#5B9BD5" stroke-width="3.4375" stroke-linejoin="round" stroke-miterlimit="10" fill="none"/></g></svg>