<svg width="977" height="878" xmlns="http://www.w3.org/2000/svg" xmlns:xlink="http://www.w3.org/1999/xlink" xml:space="preserve" overflow="hidden"><defs><clipPath id="clip0"><rect x="2072" y="3866" width="977" height="878"/></clipPath><clipPath id="clip1"><rect x="2105" y="4368" width="659" height="51"/></clipPath><clipPath id="clip2"><rect x="2330" y="4409" width="659" height="52"/></clipPath></defs><g clip-path="url(#clip0)" transform="translate(-2072 -3866)"><rect x="2073" y="3867" width="974" height="875" fill="#FFFFFF"/><g><path d="M2321.5 4575.65 2996.5 4575.65M2321.5 4515.65 2996.5 4515.65M2321.5 4455.65 2996.5 4455.65M2321.5 4396.64 2996.5 4396.64M2321.5 4336.64 2996.5 4336.64M2321.5 4276.64 2996.5 4276.64M2321.5 4216.64 2996.5 4216.64M2321.5 4156.64 2996.5 4156.64M2321.5 4096.63 2996.5 4096.63M2321.5 4037.5 2996.5 4037.5" stroke="#D9D9D9" stroke-width="3.4375" stroke-linejoin="round" stroke-miterlimit="10" fill="none"/></g><g><path d="M2321.5 4037.5 2321.5 4635.5M2546.58 4037.5 2546.58 4635.5M2771.59 4037.5 2771.59 4635.5M2996.5 4037.5 2996.5 4635.5" stroke="#D9D9D9" stroke-width="3.4375" stroke-linejoin="round" stroke-miterlimit="10" fill="none"/></g><g><rect x="2618" y="4474" width="82.9998" height="162" fill="#ED7D31"/></g><g><rect x="2843" y="4486" width="82.9998" height="150" fill="#A5A5A5"/></g><g><path d="M2392.08 4432.15 2476.08 4432.15 2476.08 4636 2392.08 4636Z" fill="#5B9BD5"/></g><g><path d="M2321.5 4635.5 2996.5 4635.5" stroke="#D9D9D9" stroke-width="3.4375" stroke-linejoin="round" stroke-miterlimit="10" fill="none" fill-rule="evenodd"/></g><g><g clip-path="url(#clip1)"><text fill="#404040" font-family="Calibri,Calibri_MSFontService,sans-serif" font-weight="400" font-size="41" transform="matrix(1 0 0 1 2387.18 4407)">339.3</text></g></g><g><g clip-path="url(#clip2)"><text fill="#404040" font-family="Calibri,Calibri_MSFontService,sans-serif" font-weight="400" font-size="41" transform="matrix(1 0 0 1 2612.23 4448)">270.5</text></g></g><g><g><text fill="#404040" font-family="Calibri,Calibri_MSFontService,sans-serif" font-weight="400" font-size="41" transform="matrix(1 0 0 1 2837.28 4461)">250.0</text></g></g><g><text fill="#595959" font-family="Calibri,Calibri_MSFontService,sans-serif" font-weight="400" font-size="41" transform="matrix(1 0 0 1 2262.49 4647)">0</text></g><g><text fill="#595959" font-family="Calibri,Calibri_MSFontService,sans-serif" font-weight="400" font-size="41" transform="matrix(1 0 0 1 2220.69 4587)">100</text></g><g><text fill="#595959" font-family="Calibri,Calibri_MSFontService,sans-serif" font-weight="400" font-size="41" transform="matrix(1 0 0 1 2220.69 4528)">200</text></g><g><text fill="#595959" font-family="Calibri,Calibri_MSFontService,sans-serif" font-weight="400" font-size="41" transform="matrix(1 0 0 1 2220.69 4468)">300</text></g><g><text fill="#595959" font-family="Calibri,Calibri_MSFontService,sans-serif" font-weight="400" font-size="41" transform="matrix(1 0 0 1 2220.69 4408)">400</text></g><g><text fill="#595959" font-family="Calibri,Calibri_MSFontService,sans-serif" font-weight="400" font-size="41" transform="matrix(1 0 0 1 2220.69 4348)">500</text></g><g><text fill="#595959" font-family="Calibri,Calibri_MSFontService,sans-serif" font-weight="400" font-size="41" transform="matrix(1 0 0 1 2220.69 4288)">600</text></g><g><text fill="#595959" font-family="Calibri,Calibri_MSFontService,sans-serif" font-weight="400" font-size="41" transform="matrix(1 0 0 1 2220.69 4228)">700</text></g><g><text fill="#595959" font-family="Calibri,Calibri_MSFontService,sans-serif" font-weight="400" font-size="41" transform="matrix(1 0 0 1 2220.69 4168)">800</text></g><g><text fill="#595959" font-family="Calibri,Calibri_MSFontService,sans-serif" font-weight="400" font-size="41" transform="matrix(1 0 0 1 2220.69 4109)">900</text></g><g><text fill="#595959" font-family="Calibri,Calibri_MSFontService,sans-serif" font-weight="400" font-size="41" transform="matrix(1 0 0 1 2199.79 4049)">1000</text></g><g><text fill="#595959" font-family="Calibri,Calibri_MSFontService,sans-serif" font-weight="400" font-size="41" transform="matrix(1 0 0 1 2396.83 4701)">Easy</text></g><g><text fill="#595959" font-family="Calibri,Calibri_MSFontService,sans-serif" font-weight="400" font-size="41" transform="matrix(1 0 0 1 2588.44 4701)">Medium</text></g><g><text fill="#595959" font-family="Calibri,Calibri_MSFontService,sans-serif" font-weight="400" font-size="41" transform="matrix(1 0 0 1 2843.52 4701)">Hard</text></g><g><text fill="#595959" font-family="Calibri,Calibri_MSFontService,sans-serif" font-weight="400" font-size="46" transform="matrix(6.12323e-17 -1 1 6.12323e-17 2174.1 4452)">MCDA Score</text></g><g><text fill="#595959" font-family="Calibri,Calibri_MSFontService,sans-serif" font-weight="400" font-size="64" transform="matrix(1 0 0 1 2275.31 3963)">Normal (prompt eng.)</text></g><rect x="2073.5" y="3867.5" width="974" height="875" stroke="#5B9BD5" stroke-width="3.4375" stroke-linejoin="round" stroke-miterlimit="10" fill="none"/></g></svg>