<svg width="978" height="877" xmlns="http://www.w3.org/2000/svg" xmlns:xlink="http://www.w3.org/1999/xlink" xml:space="preserve" overflow="hidden"><defs><clipPath id="clip0"><rect x="1047" y="3870" width="978" height="877"/></clipPath><clipPath id="clip1"><rect x="1640" y="4339" width="440" height="51"/></clipPath></defs><g clip-path="url(#clip0)" transform="translate(-1047 -3870)"><rect x="1048" y="3871" width="975" height="874" fill="#FFFFFF"/><g><path d="M1297.5 4579.65 1972.5 4579.65M1297.5 4519.65 1972.5 4519.65M1297.5 4459.65 1972.5 4459.65M1297.5 4399.64 1972.5 4399.64M1297.5 4339.64 1972.5 4339.64M1297.5 4279.64 1972.5 4279.64M1297.5 4220.64 1972.5 4220.64M1297.5 4160.64 1972.5 4160.64M1297.5 4100.63 1972.5 4100.63M1297.5 4040.5 1972.5 4040.5" stroke="#D9D9D9" stroke-width="3.4375" stroke-linejoin="round" stroke-miterlimit="10" fill="none"/></g><g><path d="M1297.5 4040.5 1297.5 4639.5M1522.55 4040.5 1522.55 4639.5M1747.56 4040.5 1747.56 4639.5M1972.5 4040.5 1972.5 4639.5" stroke="#D9D9D9" stroke-width="3.4375" stroke-linejoin="round" stroke-miterlimit="10" fill="none"/></g><g><rect x="1593" y="4483" width="84.0002" height="156" fill="#ED7D31"/></g><g><rect x="1818" y="4404" width="83.9999" height="235" fill="#A5A5A5"/></g><g><path d="M1368.04 4506.15 1451.05 4506.15 1451.05 4639 1368.04 4639Z" fill="#5B9BD5"/></g><g><path d="M1297.5 4639.5 1972.5 4639.5" stroke="#D9D9D9" stroke-width="3.4375" stroke-linejoin="round" stroke-miterlimit="10" fill="none" fill-rule="evenodd"/></g><g><g><text fill="#404040" font-family="Calibri,Calibri_MSFontService,sans-serif" font-weight="400" font-size="41" transform="matrix(1 0 0 1 1378.46 4481)">222</text></g></g><g><g><text fill="#404040" font-family="Calibri,Calibri_MSFontService,sans-serif" font-weight="400" font-size="41" transform="matrix(1 0 0 1 1603.51 4458)">261</text></g></g><g><g clip-path="url(#clip1)"><text fill="#404040" font-family="Calibri,Calibri_MSFontService,sans-serif" font-weight="400" font-size="41" transform="matrix(1 0 0 1 1828.56 4378)">393</text></g></g><g><text fill="#595959" font-family="Calibri,Calibri_MSFontService,sans-serif" font-weight="400" font-size="41" transform="matrix(1 0 0 1 1238.12 4651)">0</text></g><g><text fill="#595959" font-family="Calibri,Calibri_MSFontService,sans-serif" font-weight="400" font-size="41" transform="matrix(1 0 0 1 1196.32 4591)">100</text></g><g><text fill="#595959" font-family="Calibri,Calibri_MSFontService,sans-serif" font-weight="400" font-size="41" transform="matrix(1 0 0 1 1196.32 4531)">200</text></g><g><text fill="#595959" font-family="Calibri,Calibri_MSFontService,sans-serif" font-weight="400" font-size="41" transform="matrix(1 0 0 1 1196.32 4471)">300</text></g><g><text fill="#595959" font-family="Calibri,Calibri_MSFontService,sans-serif" font-weight="400" font-size="41" transform="matrix(1 0 0 1 1196.32 4411)">400</text></g><g><text fill="#595959" font-family="Calibri,Calibri_MSFontService,sans-serif" font-weight="400" font-size="41" transform="matrix(1 0 0 1 1196.32 4351)">500</text></g><g><text fill="#595959" font-family="Calibri,Calibri_MSFontService,sans-serif" font-weight="400" font-size="41" transform="matrix(1 0 0 1 1196.32 4292)">600</text></g><g><text fill="#595959" font-family="Calibri,Calibri_MSFontService,sans-serif" font-weight="400" font-size="41" transform="matrix(1 0 0 1 1196.32 4232)">700</text></g><g><text fill="#595959" font-family="Calibri,Calibri_MSFontService,sans-serif" font-weight="400" font-size="41" transform="matrix(1 0 0 1 1196.32 4172)">800</text></g><g><text fill="#595959" font-family="Calibri,Calibri_MSFontService,sans-serif" font-weight="400" font-size="41" transform="matrix(1 0 0 1 1196.32 4112)">900</text></g><g><text fill="#595959" font-family="Calibri,Calibri_MSFontService,sans-serif" font-weight="400" font-size="41" transform="matrix(1 0 0 1 1175.42 4052)">1000</text></g><g><text fill="#595959" font-family="Calibri,Calibri_MSFontService,sans-serif" font-weight="400" font-size="41" transform="matrix(1 0 0 1 1372.46 4704)">Easy</text></g><g><text fill="#595959" font-family="Calibri,Calibri_MSFontService,sans-serif" font-weight="400" font-size="41" transform="matrix(1 0 0 1 1564.07 4704)">Medium</text></g><g><text fill="#595959" font-family="Calibri,Calibri_MSFontService,sans-serif" font-weight="400" font-size="41" transform="matrix(1 0 0 1 1819.15 4704)">Hard</text></g><g><text fill="#595959" font-family="Calibri,Calibri_MSFontService,sans-serif" font-weight="400" font-size="46" transform="matrix(6.12323e-17 -1 1 6.12323e-17 1149.73 4456)">MCDA Score</text></g><g><text fill="#595959" font-family="Calibri,Calibri_MSFontService,sans-serif" font-weight="400" font-size="64" transform="matrix(1 0 0 1 1209.9 3966)">Normal (no prompt eng.)</text></g><rect x="1048.5" y="3871.5" width="975" height="874" stroke="#5B9BD5" stroke-width="3.4375" stroke-linejoin="round" stroke-miterlimit="10" fill="none"/></g></svg>