<svg width="2585" height="2006" xmlns="http://www.w3.org/2000/svg" xmlns:xlink="http://www.w3.org/1999/xlink" xml:space="preserve" overflow="hidden"><g transform="translate(-269 -106)"><path d="M272.5 442.672C272.5 258.667 421.666 109.5 605.672 109.5L2517.33 109.5C2701.33 109.5 2850.5 258.667 2850.5 442.672L2850.5 1775.33C2850.5 1959.33 2701.33 2108.5 2517.33 2108.5L605.672 2108.5C421.666 2108.5 272.5 1959.33 272.5 1775.33Z" stroke="#042433" stroke-width="6.875" stroke-miterlimit="8" fill="none" fill-rule="evenodd"/><text font-family="Aptos,Aptos_MSFontService,sans-serif" font-weight="400" font-size="83" transform="matrix(1 0 0 1 402.914 392)">task: Move Robot42 to location (9, 1) and remove the large debris.</text><text font-family="Aptos,Aptos_MSFontService,sans-serif" font-weight="400" font-size="83" transform="matrix(1 0 0 1 402.914 491)">---</text><text font-family="Aptos,Aptos_MSFontService,sans-serif" font-weight="400" font-size="83" transform="matrix(1 0 0 1 402.914 689)">Supervisor: </text><text font-family="Aptos,Aptos_MSFontService,sans-serif" font-weight="400" font-size="83" transform="matrix(1 0 0 1 402.914 788)">Next: Robot_selector </text><text font-family="Aptos,Aptos_MSFontService,sans-serif" font-weight="400" font-size="83" transform="matrix(1 0 0 1 402.914 887)">response: Select Robot42 for the task of moving to location (9, 1) </text><text font-family="Aptos,Aptos_MSFontService,sans-serif" font-weight="400" font-size="83" transform="matrix(1 0 0 1 402.914 986)">and removing the large debris.</text><text font-family="Aptos,Aptos_MSFontService,sans-serif" font-weight="400" font-size="83" transform="matrix(1 0 0 1 402.914 1085)">---</text><text font-family="Aptos,Aptos_MSFontService,sans-serif" font-weight="400" font-size="83" transform="matrix(1 0 0 1 402.914 1283)">Robot Selector: </text><text font-family="Aptos,Aptos_MSFontService,sans-serif" font-weight="400" font-size="83" transform="matrix(1 0 0 1 402.914 1382)">Robot42 has been moved to location (9, 1) and will remove the </text><text font-family="Aptos,Aptos_MSFontService,sans-serif" font-weight="400" font-size="83" transform="matrix(1 0 0 1 402.914 1481)">large debris using its gripper.</text><text font-family="Aptos,Aptos_MSFontService,sans-serif" font-weight="400" font-size="83" transform="matrix(1 0 0 1 402.914 1580)">---</text><text font-family="Aptos,Aptos_MSFontService,sans-serif" font-weight="400" font-size="83" transform="matrix(1 0 0 1 402.914 1679)">Supervisor: </text><text font-family="Aptos,Aptos_MSFontService,sans-serif" font-weight="400" font-size="83" transform="matrix(1 0 0 1 402.914 1778)">Next: FINISH </text><text font-family="Aptos,Aptos_MSFontService,sans-serif" font-weight="400" font-size="83" transform="matrix(1 0 0 1 402.914 1877)">---</text></g></svg>