<svg width="977" height="875" xmlns="http://www.w3.org/2000/svg" xmlns:xlink="http://www.w3.org/1999/xlink" xml:space="preserve" overflow="hidden"><defs><clipPath id="clip0"><rect x="6338" y="3859" width="977" height="875"/></clipPath><clipPath id="clip1"><rect x="6643" y="4393" width="586" height="51"/></clipPath></defs><g clip-path="url(#clip0)" transform="translate(-6338 -3859)"><rect x="6339" y="3860" width="974" height="872" fill="#FFFFFF"/><g><path d="M6608.5 4540.65 7262.5 4540.65M6608.5 4455.65 7262.5 4455.65M6608.5 4370.64 7262.5 4370.64M6608.5 4285.64 7262.5 4285.64M6608.5 4200.64 7262.5 4200.64M6608.5 4115.64 7262.5 4115.64M6608.5 4030.5 7262.5 4030.5" stroke="#D9D9D9" stroke-width="3.4375" stroke-linejoin="round" stroke-miterlimit="10" fill="none"/></g><g><path d="M6608.5 4030.5 6608.5 4625.5M6826.72 4030.5 6826.72 4625.5M7044.73 4030.5 7044.73 4625.5M7262.5 4030.5 7262.5 4625.5" stroke="#D9D9D9" stroke-width="3.4375" stroke-linejoin="round" stroke-miterlimit="10" fill="none"/></g><g><rect x="6895" y="4458" width="81" height="167" fill="#ED7D31"/></g><g><rect x="7113" y="4205" width="81" height="420" fill="#A5A5A5"/></g><g><path d="M6677.22 4454.15 6758.22 4454.15 6758.22 4625 6677.22 4625Z" fill="#5B9BD5"/></g><g><path d="M6608.5 4625.5 7262.5 4625.5" stroke="#D9D9D9" stroke-width="3.4375" stroke-linejoin="round" stroke-miterlimit="10" fill="none" fill-rule="evenodd"/></g><g><g><text fill="#404040" font-family="Calibri,Calibri_MSFontService,sans-serif" font-weight="400" font-size="41" transform="matrix(1 0 0 1 6675.74 4429)">4024</text></g></g><g><g clip-path="url(#clip1)"><text fill="#404040" font-family="Calibri,Calibri_MSFontService,sans-serif" font-weight="400" font-size="41" transform="matrix(1 0 0 1 6893.82 4432)">3946</text></g></g><g><g><text fill="#404040" font-family="Calibri,Calibri_MSFontService,sans-serif" font-weight="400" font-size="41" transform="matrix(1 0 0 1 7111.9 4180)">9892</text></g></g><g><text fill="#595959" font-family="Calibri,Calibri_MSFontService,sans-serif" font-weight="400" font-size="41" transform="matrix(1 0 0 1 6549.33 4637)">0</text></g><g><text fill="#595959" font-family="Calibri,Calibri_MSFontService,sans-serif" font-weight="400" font-size="41" transform="matrix(1 0 0 1 6486.63 4552)">2000</text></g><g><text fill="#595959" font-family="Calibri,Calibri_MSFontService,sans-serif" font-weight="400" font-size="41" transform="matrix(1 0 0 1 6486.63 4467)">4000</text></g><g><text fill="#595959" font-family="Calibri,Calibri_MSFontService,sans-serif" font-weight="400" font-size="41" transform="matrix(1 0 0 1 6486.63 4382)">6000</text></g><g><text fill="#595959" font-family="Calibri,Calibri_MSFontService,sans-serif" font-weight="400" font-size="41" transform="matrix(1 0 0 1 6486.63 4297)">8000</text></g><g><text fill="#595959" font-family="Calibri,Calibri_MSFontService,sans-serif" font-weight="400" font-size="41" transform="matrix(1 0 0 1 6465.73 4212)">10000</text></g><g><text fill="#595959" font-family="Calibri,Calibri_MSFontService,sans-serif" font-weight="400" font-size="41" transform="matrix(1 0 0 1 6465.73 4127)">12000</text></g><g><text fill="#595959" font-family="Calibri,Calibri_MSFontService,sans-serif" font-weight="400" font-size="41" transform="matrix(1 0 0 1 6465.73 4042)">14000</text></g><g><text fill="#595959" font-family="Calibri,Calibri_MSFontService,sans-serif" font-weight="400" font-size="41" transform="matrix(1 0 0 1 6680.18 4691)">Easy</text></g><g><text fill="#595959" font-family="Calibri,Calibri_MSFontService,sans-serif" font-weight="400" font-size="41" transform="matrix(1 0 0 1 6864.83 4691)">Medium</text></g><g><text fill="#595959" font-family="Calibri,Calibri_MSFontService,sans-serif" font-weight="400" font-size="41" transform="matrix(1 0 0 1 7112.94 4691)">Hard</text></g><g><text fill="#595959" font-family="Calibri,Calibri_MSFontService,sans-serif" font-weight="400" font-size="46" transform="matrix(6.12323e-17 -1 1 6.12323e-17 6440.04 4394)">Tokens</text></g><g><text fill="#595959" font-family="Calibri,Calibri_MSFontService,sans-serif" font-weight="400" font-size="64" transform="matrix(1 0 0 1 6541.25 3956)">Normal (prompt eng.)</text></g><rect x="6339.5" y="3860.5" width="974" height="872" stroke="#5B9BD5" stroke-width="3.4375" stroke-linejoin="round" stroke-miterlimit="10" fill="none"/></g></svg>